<svg width="80" height="50" viewBox="0 0 80 50" fill="none" xmlns="http://www.w3.org/2000/svg">
<path d="M20 16.9792C22.6659 6.28547 29.3341 0.9375 40 0.9375C56 0.9375 58 12.9687 66 14.9739C71.3341 16.3114 76 14.3062 80 8.95828C77.3341 19.652 70.6659 25 60 25C44 25 42 12.9688 34 10.9636C28.6659 9.62609 24 11.6313 20 16.9792ZM0 41.0417C2.66594 30.348 9.33406 25 20 25C36 25 38 37.0312 46 39.0364C51.3341 40.3739 56 38.3688 60 33.0208C57.3341 43.7145 50.6659 49.0625 40 49.0625C24 49.0625 22 37.0312 14 35.0261C8.66594 33.6886 4 35.6937 0 41.0417Z" fill="#00DF5E"/>
</svg>
