<svg width="75" height="80" viewBox="0 0 75 80" fill="none" xmlns="http://www.w3.org/2000/svg">
<path fill-rule="evenodd" clip-rule="evenodd" d="M37.4142 0L37.4141 5.5502e-05V8.84V8.84056L37.4144 8.83984L60.7233 61.04H52.0025L47.3005 49.36H37.4141V80H37.4142L69.1225 62.52L74.8292 13.28L37.4142 0ZM37.4141 42.16H44.2462L37.4144 25.7998L37.4141 25.8006V42.16Z" fill="#00DF5E"/>
<path fill-rule="evenodd" clip-rule="evenodd" d="M37.415 0L37.4149 2.7751e-05L74.83 13.28L69.1233 62.52L74.83 13.28L37.415 0ZM0 13.28L37.4148 5.5502e-05V8.84V8.84056L14.0258 61.04H22.7466L27.4486 49.36H37.4148V80L5.70669 62.52L0 13.28ZM37.4148 25.8006V42.16H30.5832L37.4148 25.8006Z" fill="#00DF5E"/>
</svg>
