<svg width="88" height="70" viewBox="0 0 88 70" fill="none" xmlns="http://www.w3.org/2000/svg">
<path fill-rule="evenodd" clip-rule="evenodd" d="M18.2775 0C13.2564 0 9.54164 4.38873 9.70767 9.14804C9.86717 13.7198 9.66006 19.642 8.16681 24.4708C6.66909 29.3146 4.13686 32.3762 0 32.7696V37.2304C4.13703 37.6238 6.66909 40.6854 8.16681 45.5292C9.66006 50.358 9.86717 56.2802 9.70784 60.8521C9.54164 65.6113 13.2564 70 18.2775 70H69.7288C74.75 70 78.4647 65.6113 78.2987 60.8521C78.1392 56.2802 78.3463 50.358 79.8394 45.5292C81.3373 40.6854 83.8631 37.6238 88 37.2304V32.7696C83.8631 32.3762 81.3373 29.3146 79.8394 24.4708C78.3463 19.642 78.1392 13.7198 78.2987 9.14804C78.4647 4.38873 74.75 0 69.7288 0H18.2775ZM58.9361 43.0812C58.9361 49.6346 54.0375 53.6078 45.9083 53.6078H30.5767V16.3774H45.8289C52.6077 16.3774 57.0561 20.0413 57.0561 25.6658C57.0561 29.6133 54.064 33.1479 50.2509 33.7671V33.9735C55.4409 34.5412 58.9361 38.1275 58.9361 43.0812ZM44.3991 21.099H36.5081V32.219H43.1545C48.2915 32.219 51.1247 30.1551 51.1247 26.4655C51.1247 23.0082 48.6888 21.099 44.3991 21.099ZM36.5081 36.6311V48.8864H44.6903C50.0392 48.8864 52.8724 46.7449 52.8724 42.7201C52.8724 38.6951 49.9596 36.6311 44.346 36.6311H36.5081Z" fill="#00DF5E"/>
</svg>
