<svg width="104" height="21" viewBox="0 0 104 21" fill="none" xmlns="http://www.w3.org/2000/svg">
<path d="M0.768 20V1.8H7.502C8.958 1.8 10.1627 2.04267 11.116 2.528C12.0693 3.01333 12.78 3.68067 13.248 4.53C13.716 5.37933 13.95 6.33267 13.95 7.39C13.95 8.39533 13.7247 9.32267 13.274 10.172C12.8233 11.004 12.1213 11.68 11.168 12.2C10.2147 12.7027 8.99267 12.954 7.502 12.954H4.096V20H0.768ZM4.096 10.25H7.294C8.45533 10.25 9.28733 9.99867 9.79 9.496C10.31 8.976 10.57 8.274 10.57 7.39C10.57 6.48867 10.31 5.78667 9.79 5.284C9.28733 4.764 8.45533 4.504 7.294 4.504H4.096V10.25ZM22.0108 20.312C20.7628 20.312 19.6361 20.026 18.6308 19.454C17.6428 18.882 16.8541 18.0933 16.2648 17.088C15.6928 16.0653 15.4068 14.8867 15.4068 13.552C15.4068 12.2173 15.7015 11.0473 16.2908 10.042C16.8801 9.01933 17.6688 8.222 18.6568 7.65C19.6621 7.078 20.7888 6.792 22.0368 6.792C23.2675 6.792 24.3768 7.078 25.3648 7.65C26.3701 8.222 27.1588 9.01933 27.7308 10.042C28.3201 11.0473 28.6148 12.2173 28.6148 13.552C28.6148 14.8867 28.3201 16.0653 27.7308 17.088C27.1588 18.0933 26.3701 18.882 25.3648 19.454C24.3595 20.026 23.2415 20.312 22.0108 20.312ZM22.0108 17.426C22.8775 17.426 23.6315 17.1053 24.2728 16.464C24.9141 15.8053 25.2348 14.8347 25.2348 13.552C25.2348 12.2693 24.9141 11.3073 24.2728 10.666C23.6315 10.0073 22.8861 9.678 22.0368 9.678C21.1528 9.678 20.3901 10.0073 19.7488 10.666C19.1248 11.3073 18.8128 12.2693 18.8128 13.552C18.8128 14.8347 19.1248 15.8053 19.7488 16.464C20.3901 17.1053 21.1441 17.426 22.0108 17.426ZM31.5904 20V7.104H34.5544L34.8664 9.522C35.3344 8.69 35.9671 8.03133 36.7644 7.546C37.5791 7.04333 38.5324 6.792 39.6244 6.792V10.302H38.6884C37.9604 10.302 37.3104 10.4147 36.7384 10.64C36.1664 10.8653 35.7157 11.2553 35.3864 11.81C35.0744 12.3647 34.9184 13.136 34.9184 14.124V20H31.5904ZM47.645 20C46.293 20 45.2097 19.6707 44.395 19.012C43.5803 18.3533 43.173 17.1833 43.173 15.502V9.886H40.963V7.104H43.173L43.563 3.646H46.501V7.104H49.985V9.886H46.501V15.528C46.501 16.152 46.631 16.5853 46.891 16.828C47.1683 17.0533 47.6363 17.166 48.295 17.166H49.907V20H47.645ZM53.4403 20V9.886H51.6723V7.104H53.4403V5.596C53.4403 4.036 53.8303 2.92667 54.6103 2.268C55.4077 1.60933 56.4823 1.28 57.8343 1.28H59.2643V4.114H58.3543C57.7823 4.114 57.375 4.22667 57.1323 4.452C56.8897 4.67733 56.7683 5.05867 56.7683 5.596V7.104H59.5503V9.886H56.7683V20H53.4403ZM67.8663 20.312C66.6183 20.312 65.4916 20.026 64.4863 19.454C63.4983 18.882 62.7096 18.0933 62.1203 17.088C61.5483 16.0653 61.2623 14.8867 61.2623 13.552C61.2623 12.2173 61.5569 11.0473 62.1463 10.042C62.7356 9.01933 63.5243 8.222 64.5123 7.65C65.5176 7.078 66.6443 6.792 67.8923 6.792C69.1229 6.792 70.2323 7.078 71.2203 7.65C72.2256 8.222 73.0143 9.01933 73.5863 10.042C74.1756 11.0473 74.4703 12.2173 74.4703 13.552C74.4703 14.8867 74.1756 16.0653 73.5863 17.088C73.0143 18.0933 72.2256 18.882 71.2203 19.454C70.2149 20.026 69.0969 20.312 67.8663 20.312ZM67.8663 17.426C68.7329 17.426 69.4869 17.1053 70.1283 16.464C70.7696 15.8053 71.0903 14.8347 71.0903 13.552C71.0903 12.2693 70.7696 11.3073 70.1283 10.666C69.4869 10.0073 68.7416 9.678 67.8923 9.678C67.0083 9.678 66.2456 10.0073 65.6043 10.666C64.9803 11.3073 64.6683 12.2693 64.6683 13.552C64.6683 14.8347 64.9803 15.8053 65.6043 16.464C66.2456 17.1053 66.9996 17.426 67.8663 17.426ZM67.0083 6.064V3.724L72.8843 0.551999V3.256L67.0083 6.064ZM77.4459 20V1.28H80.7739V20H77.4459ZM85.9684 5.102C85.3617 5.102 84.859 4.92 84.4604 4.556C84.079 4.192 83.8884 3.73267 83.8884 3.178C83.8884 2.62333 84.079 2.17267 84.4604 1.826C84.859 1.462 85.3617 1.28 85.9684 1.28C86.575 1.28 87.069 1.462 87.4504 1.826C87.849 2.17267 88.0484 2.62333 88.0484 3.178C88.0484 3.73267 87.849 4.192 87.4504 4.556C87.069 4.92 86.575 5.102 85.9684 5.102ZM84.3044 20V7.104H87.6324V20H84.3044ZM97.294 20.312C96.046 20.312 94.9193 20.026 93.914 19.454C92.926 18.882 92.1373 18.0933 91.548 17.088C90.976 16.0653 90.69 14.8867 90.69 13.552C90.69 12.2173 90.9847 11.0473 91.574 10.042C92.1633 9.01933 92.952 8.222 93.94 7.65C94.9453 7.078 96.072 6.792 97.32 6.792C98.5507 6.792 99.66 7.078 100.648 7.65C101.653 8.222 102.442 9.01933 103.014 10.042C103.603 11.0473 103.898 12.2173 103.898 13.552C103.898 14.8867 103.603 16.0653 103.014 17.088C102.442 18.0933 101.653 18.882 100.648 19.454C99.6427 20.026 98.5247 20.312 97.294 20.312ZM97.294 17.426C98.1607 17.426 98.9147 17.1053 99.556 16.464C100.197 15.8053 100.518 14.8347 100.518 13.552C100.518 12.2693 100.197 11.3073 99.556 10.666C98.9147 10.0073 98.1693 9.678 97.32 9.678C96.436 9.678 95.6733 10.0073 95.032 10.666C94.408 11.3073 94.096 12.2693 94.096 13.552C94.096 14.8347 94.408 15.8053 95.032 16.464C95.6733 17.1053 96.4273 17.426 97.294 17.426Z" fill="#F9F9F9"/>
</svg>
